<mxfile host="65bd71144e">
    <diagram id="qlzSRDtYVhIH7st1TKYE" name="Page-1">
        <mxGraphModel dx="893" dy="809" grid="1" gridSize="10" guides="1" tooltips="1" connect="1" arrows="1" fold="1" page="1" pageScale="1" pageWidth="600" pageHeight="1600" math="0" shadow="0">
            <root>
                <mxCell id="0"/>
                <mxCell id="1" parent="0"/>
                <mxCell id="2" value="" style="swimlane;startSize=0;strokeWidth=2;fillColor=#dae8fc;strokeColor=#6c8ebf;" vertex="1" parent="1">
                    <mxGeometry x="70" y="40" width="200" height="530" as="geometry"/>
                </mxCell>
                <mxCell id="5" value="Cart Service" style="text;html=1;align=center;verticalAlign=middle;whiteSpace=wrap;rounded=0;fontColor=#F0F0F0;" vertex="1" parent="2">
                    <mxGeometry x="10" y="10" width="140" height="30" as="geometry"/>
                </mxCell>
                <mxCell id="11" value="cart checkout" style="rounded=0;whiteSpace=wrap;html=1;fillColor=#647687;strokeColor=#314354;fontColor=#ffffff;" vertex="1" parent="2">
                    <mxGeometry x="30" y="60" width="120" height="60" as="geometry"/>
                </mxCell>
                <mxCell id="3" value="" style="swimlane;startSize=0;strokeWidth=2;fillColor=#dae8fc;strokeColor=#6c8ebf;" vertex="1" parent="1">
                    <mxGeometry x="300" y="40" width="250" height="530" as="geometry"/>
                </mxCell>
                <mxCell id="6" value="Order Service&lt;span style=&quot;font-family: monospace; font-size: 0px;&quot;&gt;%3CmxGraphModel%3E%3Croot%3E%3CmxCell%20id%3D%220%22%2F%3E%3CmxCell%20id%3D%221%22%20parent%3D%220%22%2F%3E%3CmxCell%20id%3D%222%22%20value%3D%22Cart%20Service%22%20style%3D%22text%3Bhtml%3D1%3BstrokeColor%3Dnone%3BfillColor%3Dnone%3Balign%3Dcenter%3BverticalAlign%3Dmiddle%3BwhiteSpace%3Dwrap%3Brounded%3D0%3B%22%20vertex%3D%221%22%20parent%3D%221%22%3E%3CmxGeometry%20x%3D%2280%22%20y%3D%2250%22%20width%3D%22140%22%20height%3D%2230%22%20as%3D%22geometry%22%2F%3E%3C%2FmxCell%3E%3C%2Froot%3E%3C%2FmxGraphModel%3E&lt;/span&gt;" style="text;html=1;align=center;verticalAlign=middle;whiteSpace=wrap;rounded=0;fontColor=#F0F0F0;" vertex="1" parent="3">
                    <mxGeometry x="10" y="10" width="140" height="30" as="geometry"/>
                </mxCell>
                <mxCell id="12" value="create draft order" style="rounded=0;whiteSpace=wrap;html=1;fillColor=#647687;fontColor=#ffffff;strokeColor=#314354;" vertex="1" parent="3">
                    <mxGeometry x="40" y="150" width="120" height="60" as="geometry"/>
                </mxCell>
                <mxCell id="17" value="confirm the order" style="rounded=0;whiteSpace=wrap;html=1;fillColor=#647687;fontColor=#ffffff;strokeColor=#314354;" vertex="1" parent="3">
                    <mxGeometry x="40" y="330" width="120" height="60" as="geometry"/>
                </mxCell>
                <mxCell id="19" value="TX1" style="ellipse;whiteSpace=wrap;html=1;" vertex="1" parent="3">
                    <mxGeometry x="140" y="130" width="40" height="40" as="geometry"/>
                </mxCell>
                <mxCell id="23" value="TX4" style="ellipse;whiteSpace=wrap;html=1;" vertex="1" parent="3">
                    <mxGeometry x="140" y="320" width="40" height="40" as="geometry"/>
                </mxCell>
                <mxCell id="25" value="" style="swimlane;startSize=0;dashed=1;fillColor=#fff2cc;strokeColor=#d6b656;strokeWidth=4;" vertex="1" parent="3">
                    <mxGeometry x="-10" y="130" width="510" height="280" as="geometry"/>
                </mxCell>
                <mxCell id="4" value="" style="swimlane;startSize=0;fillColor=#dae8fc;strokeColor=#6c8ebf;" vertex="1" parent="1">
                    <mxGeometry x="590" y="40" width="180" height="530" as="geometry"/>
                </mxCell>
                <mxCell id="7" value="Payment Service" style="text;html=1;align=center;verticalAlign=middle;whiteSpace=wrap;rounded=0;fontColor=#F0F0F0;" vertex="1" parent="4">
                    <mxGeometry x="10" y="10" width="140" height="30" as="geometry"/>
                </mxCell>
                <mxCell id="13" value="create payment invocice" style="rounded=0;whiteSpace=wrap;html=1;fillColor=#647687;fontColor=#ffffff;strokeColor=#314354;" vertex="1" parent="4">
                    <mxGeometry x="30" y="150" width="150" height="60" as="geometry"/>
                </mxCell>
                <mxCell id="15" value="payment succedded" style="rounded=0;whiteSpace=wrap;html=1;fillColor=#647687;fontColor=#ffffff;strokeColor=#314354;" vertex="1" parent="4">
                    <mxGeometry x="30" y="250" width="150" height="60" as="geometry"/>
                </mxCell>
                <mxCell id="20" value="TY1" style="ellipse;whiteSpace=wrap;html=1;" vertex="1" parent="4">
                    <mxGeometry x="160" y="130" width="40" height="40" as="geometry"/>
                </mxCell>
                <mxCell id="22" value="TY2" style="ellipse;whiteSpace=wrap;html=1;" vertex="1" parent="4">
                    <mxGeometry x="160" y="230" width="40" height="40" as="geometry"/>
                </mxCell>
                <mxCell id="9" value="" style="swimlane;startSize=0;strokeWidth=2;fillColor=#dae8fc;strokeColor=#6c8ebf;" vertex="1" parent="1">
                    <mxGeometry x="780" y="40" width="340" height="530" as="geometry"/>
                </mxCell>
                <mxCell id="10" value="WareHouse service" style="text;html=1;align=center;verticalAlign=middle;whiteSpace=wrap;rounded=0;fontColor=#F0F0F0;" vertex="1" parent="9">
                    <mxGeometry x="10" y="10" width="140" height="30" as="geometry"/>
                </mxCell>
                <mxCell id="14" value="reserve items" style="rounded=0;whiteSpace=wrap;html=1;fillColor=#647687;fontColor=#ffffff;strokeColor=#314354;" vertex="1" parent="9">
                    <mxGeometry x="25" y="150" width="150" height="60" as="geometry"/>
                </mxCell>
                <mxCell id="16" value="commit resrvation &amp;amp; ship" style="rounded=0;whiteSpace=wrap;html=1;fillColor=#647687;fontColor=#ffffff;strokeColor=#314354;" vertex="1" parent="9">
                    <mxGeometry x="25" y="330" width="150" height="60" as="geometry"/>
                </mxCell>
                <mxCell id="21" value="TX2" style="ellipse;whiteSpace=wrap;html=1;" vertex="1" parent="9">
                    <mxGeometry x="160" y="130" width="40" height="40" as="geometry"/>
                </mxCell>
                <mxCell id="24" value="TY3" style="ellipse;whiteSpace=wrap;html=1;" vertex="1" parent="9">
                    <mxGeometry x="160" y="310" width="40" height="40" as="geometry"/>
                </mxCell>
                <mxCell id="26" value="" style="swimlane;startSize=0;dashed=1;fillColor=#60a917;fontColor=#ffffff;strokeColor=#2D7600;strokeWidth=4;" vertex="1" parent="9">
                    <mxGeometry x="-190" y="140" width="430" height="280" as="geometry"/>
                </mxCell>
                <mxCell id="27" value="TX2" style="ellipse;whiteSpace=wrap;html=1;" vertex="1" parent="26">
                    <mxGeometry x="120" y="-10" width="40" height="40" as="geometry"/>
                </mxCell>
                <mxCell id="28" value="TX3" style="ellipse;whiteSpace=wrap;html=1;" vertex="1" parent="26">
                    <mxGeometry x="120" y="90" width="40" height="40" as="geometry"/>
                </mxCell>
            </root>
        </mxGraphModel>
    </diagram>
</mxfile>